<svg width="19" height="19" viewBox="0 0 19 19" fill="none" xmlns="http://www.w3.org/2000/svg">
<g id="Frame">
<g id="Group">
<g id="Group_2">
<g id="Group_3">
<path id="Vector" d="M13.5732 13.5731L17.5386 17.5385" stroke="#FEFEFE" stroke-width="1.5" stroke-miterlimit="20" stroke-linecap="round"/>
</g>
<g id="Group_4">
<g id="Clip path group">
<mask id="mask0_1_748" style="mask-type:luminance" maskUnits="userSpaceOnUse" x="3" y="3" width="13" height="13">
<g id="bzfea">
<path id="Vector_2" d="M3.00012 9.27819C3.00012 7.61311 3.66157 6.01623 4.83896 4.83884C6.01635 3.66145 7.61323 3 9.27831 3C10.9434 3 12.5403 3.66145 13.7177 4.83884C14.8951 6.01623 15.5565 7.61311 15.5565 9.27819C15.5565 10.9433 14.8951 12.5402 13.7177 13.7175C12.5403 14.8949 10.9434 15.5564 9.27831 15.5564C7.61323 15.5564 6.01635 14.8949 4.83896 13.7175C3.66157 12.5402 3.00012 10.9433 3.00012 9.27819Z" fill="white"/>
</g>
</mask>
<g mask="url(#mask0_1_748)">
<path id="Vector_3" d="M3.00012 9.27819C3.00012 7.61311 3.66157 6.01623 4.83896 4.83884C6.01635 3.66145 7.61323 3 9.27831 3C10.9434 3 12.5403 3.66145 13.7177 4.83884C14.8951 6.01623 15.5565 7.61311 15.5565 9.27819C15.5565 10.9433 14.8951 12.5402 13.7177 13.7175C12.5403 14.8949 10.9434 15.5564 9.27831 15.5564C7.61323 15.5564 6.01635 14.8949 4.83896 13.7175C3.66157 12.5402 3.00012 10.9433 3.00012 9.27819Z" stroke="#FEFEFE" stroke-width="3" stroke-miterlimit="20"/>
</g>
</g>
</g>
</g>
</g>
</g>
</svg>
